<svg width="61" height="60" viewBox="0 0 61 60" xmlns="http://www.w3.org/2000/svg"><title>avatar</title><path d="M30.1 60C13.5 60 0 46.5 0 30S13.5 0 30.1 0s30.1 13.5 30.1 30-13.5 30-30.1 30zm0-58c-15.4 0-28 12.5-28 28s12.6 28 28 28 28-12.5 28-28-12.6-28-28-28zM13.2 53.5l-2-.6c1.8-6.1 6.3-10.6 12.9-12.7h.1c.4-.1.7-.2 1.1-1.4l2 .7c-.7 2-1.6 2.4-2.4 2.7h-.1c-6 1.9-10 5.9-11.6 11.3zm33.8 0c-1.6-5.4-5.6-9.4-11.5-11.3h-.1c-.9-.3-1.7-.7-2.4-2.7l2-.7c.4 1.2.7 1.3 1.1 1.4h.1c6.5 2.1 11.1 6.6 12.9 12.7l-2.1.6zM30.1 40.4c-9.1 0-10.4-12.8-10.4-13.3l-.1-.9 12.1-3.5 4.8-4.5.7.9c.1.2 3.3 4.5 3.3 7.8 0 .8-1.3 13.5-10.4 13.5zm-8.2-12.6c.4 2.7 2.2 10.6 8.2 10.6 7.2 0 8.4-11.3 8.4-11.4 0-1.7-1.3-4-2.3-5.5l-3.5 3.2-10.8 3.1zm19.2-.4l-1.9-.9c.3-.8 2-6.6-.5-10.5-1.5-2.4-4.5-3.6-8.7-3.6-4.2 0-7.1 1.2-8.7 3.6-2.5 3.9-.8 9.8-.5 10.5l-1.7.9c-.5-1.1-2.4-7.8.6-12.5 2-3 5.5-4.6 10.4-4.6s8.5 1.5 10.4 4.6c3.1 4.7 1.1 11.4.6 12.5zM28 33.1h4.2v2.1H28v-2.1z" fill="#CCC" fill-rule="evenodd"/></svg>