<svg width="70" height="70" viewBox="0 0 70 70" xmlns="http://www.w3.org/2000/svg"><title>Slice 1</title><g fill="#16DA65" fill-rule="evenodd"><path d="M41.083 69.014h-.002a.999.999 0 0 1-.923-.621L28.917 40.995 1.519 29.755a1.002 1.002 0 0 1-.62-.924.998.998 0 0 1 .617-.925L68.367.239a1.001 1.001 0 0 1 1.307 1.306L42.007 68.396a.999.999 0 0 1-.924.618zM4.524 28.826l25.54 10.478c.247.102.443.298.545.546l10.479 25.54L66.903 3.011 4.524 28.826z"/><path d="M29.684 41.229a.999.999 0 0 1-.707-1.707L66.974 1.525a.999.999 0 1 1 1.414 1.414L30.391 40.936a.997.997 0 0 1-.707.293z"/></g></svg>